<?xml version="1.0" encoding="UTF-8" standalone="no"?>
<!-- Created with Inkscape (http://www.inkscape.org/) -->

<svg
   width="384"
   height="512"
   viewBox="0 0 384 512"
   version="1.1"
   id="svg1"
   xml:space="preserve"
   sodipodi:docname="banana-silhouette.svg"
   inkscape:version="1.4.3 (0d15f75042, 2025-12-25)"
   xmlns:inkscape="http://www.inkscape.org/namespaces/inkscape"
   xmlns:sodipodi="http://sodipodi.sourceforge.net/DTD/sodipodi-0.dtd"
   xmlns="http://www.w3.org/2000/svg"
   xmlns:svg="http://www.w3.org/2000/svg"><sodipodi:namedview
     id="namedview1"
     pagecolor="#505050"
     bordercolor="#eeeeee"
     borderopacity="1"
     inkscape:showpageshadow="0"
     inkscape:pageopacity="0"
     inkscape:pagecheckerboard="0"
     inkscape:deskcolor="#505050"
     inkscape:zoom="1.6347656"
     inkscape:cx="205.2282"
     inkscape:cy="264.56392"
     inkscape:window-width="2560"
     inkscape:window-height="1050"
     inkscape:window-x="0"
     inkscape:window-y="0"
     inkscape:window-maximized="1"
     inkscape:current-layer="layer1" /><defs
     id="defs1" /><g
     id="layer1"><path
       style="opacity:1;fill:none;stroke:#ffffff;stroke-width:16.0004;stroke-linecap:round;stroke-linejoin:round;stroke-dasharray:none;stroke-dashoffset:7.93699;stroke-opacity:1"
       d="m 147.76038,491.88784 c -46.47321,-138.58393 -21.83251,-251.7857 20.79806,-223.28151 12.63704,8.44953 29.97532,45.72637 24.16267,27.83334"
       id="path10"
       sodipodi:nodetypes="csc" /><path
       style="opacity:1;fill:#ffffff;fill-opacity:1;stroke:none;stroke-width:16.0004;stroke-linecap:round;stroke-dasharray:none;stroke-dashoffset:7.93699;stroke-opacity:1"
       d="m 235.84672,269.21763 c 21.20596,51.58933 76.19312,113.44143 94.20344,134.27497 13.66156,15.80306 31.59541,49.53384 31.80897,59.64377 0.0634,2.99931 -7.33546,21.67905 -14.06934,22.45487 -79.53909,9.16413 -138.85835,-29.79564 -211.65194,-149.69492 -3.38731,-84.22043 56.92484,-35.01786 99.70887,-66.67869 z"
       id="path9"
       sodipodi:nodetypes="cssscc" /><path
       style="fill:none;stroke:#ffffff;stroke-width:16.0004;stroke-linecap:round;stroke-dasharray:none;stroke-dashoffset:7.93699;stroke-opacity:1"
       d="M 98.699996,226.63087 C 84.706416,44.258805 197.76198,0.05598356 229.7296,23.301762 c 41.88875,30.460102 -28.66707,67.784019 -31.19726,166.390848 -0.42178,16.43761 7.34053,49.85607 7.34053,49.85607"
       id="path1" /><path
       style="opacity:1;fill:none;fill-opacity:1;stroke:#ffffff;stroke-width:16.0004;stroke-linecap:round;stroke-dasharray:none;stroke-dashoffset:7.93699;stroke-opacity:1"
       d="m 235.84672,269.21763 c 21.20596,51.58933 76.19312,113.44143 94.20344,134.27497 13.66156,15.80306 31.59541,49.53384 31.80897,59.64377 0.0634,2.99931 -7.33546,21.67905 -14.06934,22.45487 C 268.2507,494.75537 208.93144,455.7956 136.13785,335.89632"
       id="path2"
       sodipodi:nodetypes="csssc" /><path
       style="opacity:1;fill:none;stroke:#ffffff;stroke-width:16.0004;stroke-linecap:round;stroke-linejoin:round;stroke-dasharray:none;stroke-dashoffset:7.93699;stroke-opacity:1"
       d="m 192.72111,296.43967 c -4.75957,-14.65129 -13.42233,-37.39215 -18.96305,-38.2332 -37.55653,-5.70075 -65.43181,-22.73057 -87.780507,-41.5977 -45.745055,-38.6187 -134.270523,185.90644 67.288187,277.72588 -26.28689,-104.32835 -27.94958,-215.69502 4.89369,-215.32932 15.20069,0.16916 40.37433,35.32737 34.56168,17.43434 z"
       id="path3" /><path
       style="opacity:1;fill:none;stroke:#ffffff;stroke-width:16.0004;stroke-linecap:round;stroke-linejoin:round;stroke-dasharray:none;stroke-dashoffset:7.93699;stroke-opacity:1"
       d="m 194.0202,300.08767 c 5.94004,-19.65183 90.32074,-112.07717 158.05156,74.34771 26.13068,-103.54159 -39.34358,-171.73291 -79.52241,-172.81401 -45.3248,-1.21961 -70.27071,40.49229 -83.66297,71.02815 -2.71554,6.1917 3.54932,32.68025 5.13382,27.43815 z"
       id="path4" /><path
       style="opacity:1;fill:none;stroke:#ffffff;stroke-width:16.0004;stroke-linecap:round;stroke-linejoin:round;stroke-dasharray:none;stroke-dashoffset:7.93699;stroke-opacity:1"
       d="m 200.45481,166.59126 c 0,0 34.52557,-0.91825 43.25447,9.08373 6.1259,7.01934 5.32624,28.69735 5.32624,28.69735"
       id="path5" /><path
       style="opacity:1;fill:none;stroke:#ffffff;stroke-width:16.0004;stroke-linecap:round;stroke-linejoin:round;stroke-dasharray:none;stroke-dashoffset:7.93699;stroke-opacity:1"
       d="m 97.509099,178.70292 c 0,0 -11.150947,-11.02934 -23.78997,-8.6512 -12.639007,2.37816 -27.575473,18.40489 -32.008299,31.57685 -4.432825,13.17192 6.055624,29.41399 6.055624,29.41399"
       id="path6" /><path
       style="opacity:1;fill:none;stroke:#ffffff;stroke-width:16.0004;stroke-linecap:round;stroke-linejoin:round;stroke-dasharray:none;stroke-dashoffset:7.93699;stroke-opacity:1"
       d="m 254.99894,261.68006 c -1.70305,7.41415 15.75511,71.91435 17.25832,69.28368"
       id="path7" /><path
       style="opacity:1;fill:none;stroke:#000000;stroke-width:16.0004;stroke-linecap:round;stroke-linejoin:round;stroke-dasharray:none;stroke-dashoffset:7.93699;stroke-opacity:1"
       d="M 339.83759,475.37128 C 257.05613,440.9255 218.01081,383.90938 194.86208,303.47457"
       id="path8"
       sodipodi:nodetypes="cc" /><path
       style="opacity:1;fill:none;stroke:#ffffff;stroke-width:16.0004;stroke-linecap:round;stroke-linejoin:round;stroke-dasharray:none;stroke-dashoffset:7.93699;stroke-opacity:1"
       d="m 200.45481,166.59126 c 0,0 30.85532,-0.30654 39.58422,9.69544 6.1259,7.01934 -0.179,32.36758 -0.179,32.36758"
       id="path11"
       sodipodi:nodetypes="csc" /><path
       style="opacity:1;fill:none;stroke:#ffffff;stroke-width:16.0004;stroke-linecap:round;stroke-linejoin:round;stroke-dasharray:none;stroke-dashoffset:7.93699;stroke-opacity:1"
       d="m 44.769362,196.12321 c -3.209412,17.45387 12.172692,24.52033 12.172692,24.52033"
       id="path12"
       sodipodi:nodetypes="cc" /><path
       style="opacity:1;fill:none;stroke:#ffffff;stroke-width:16.0004;stroke-linecap:round;stroke-linejoin:round;stroke-dasharray:none;stroke-dashoffset:7.93699;stroke-opacity:1"
       d="m 245.91553,262.1126 c -1.70305,7.41415 24.83852,71.48181 26.34173,68.85114"
       id="path13"
       sodipodi:nodetypes="cc" /></g></svg>
